<svg width="97" height="97" viewBox="0 0 97 97" fill="none" xmlns="http://www.w3.org/2000/svg">
<path d="M48.7474 64.4233C41.165 64.4233 34.8401 59.0545 33.3386 51.9211H8.11401C9.897 72.6642 27.2952 88.9395 48.4847 88.9395C69.6741 88.9395 87.0911 72.6642 88.8553 51.9211H64.1562C62.6548 59.0733 56.3298 64.4233 48.7474 64.4233Z" fill="white"/>
<path d="M57.7563 87.8883C74.5728 83.9462 87.354 69.548 88.8555 51.9211H78.9082C77.9135 67.9149 69.5241 81.4683 57.7563 87.8883Z" fill="#DFDFDF"/>
<path d="M58.0377 48.6735C58.0189 48.6735 58.0189 48.6735 58.0377 48.6735C58.0189 47.5284 57.8125 46.4396 57.4371 45.426C56.1233 41.8968 52.7263 39.4001 48.7474 39.4001C44.7685 39.4001 41.3714 41.9156 40.0576 45.426C39.6823 46.4396 39.4758 47.5284 39.4758 48.6735H39.4946C39.4946 49.8186 39.701 50.9074 40.0764 51.9211C41.3902 55.4502 44.7873 57.9469 48.7662 57.9469C52.745 57.9469 56.1421 55.4314 57.4559 51.9211C57.8313 50.9262 58.0377 49.8186 58.0377 48.6735Z" fill="white"/>
<path d="M48.7658 32.9427C56.3483 32.9427 62.6732 38.3115 64.1746 45.4449H89.3993C87.6163 24.683 70.218 8.40771 49.0098 8.40771C27.8016 8.40771 10.4222 24.683 8.63916 45.4261H33.357C34.8585 38.2927 41.1834 32.9427 48.7658 32.9427Z" fill="#FF1C1C"/>
<path d="M78.9079 45.426H89.3806C87.8416 27.4987 74.6287 12.8941 57.3806 9.27112C69.3548 15.5973 77.8944 29.2821 78.9079 45.426Z" fill="#DF1818"/>
<path d="M49.0102 8.40765C70.2184 8.40765 87.6166 24.683 89.3809 45.426H64.1562C62.6548 38.2927 56.3299 32.9239 48.7475 32.9239C41.165 32.9239 34.8401 38.2927 33.3387 45.426H8.63953C10.4225 24.683 27.8208 8.40765 49.0102 8.40765ZM57.4372 45.426C57.8125 46.4397 58.019 47.5285 58.019 48.6736H58.0378C58.0378 49.8187 57.8313 50.9074 57.456 51.9211C56.1422 55.4503 52.7451 57.9469 48.7662 57.9469C44.7873 57.9469 41.3903 55.4315 40.0765 51.9211C39.7011 50.9074 39.4947 49.8187 39.4947 48.6736H39.4759C39.4759 47.5285 39.6823 46.4397 40.0577 45.426C41.3715 41.8969 44.7686 39.4002 48.7475 39.4002C52.7263 39.4002 56.1234 41.9157 57.4372 45.426ZM48.4847 88.9583C27.2765 88.9583 9.87824 72.683 8.11402 51.9399H33.3387C34.8401 59.0733 41.165 64.4421 48.7475 64.4421C56.3299 64.4421 62.6548 59.0733 64.1562 51.9399H88.8741C87.0911 72.6642 69.6929 88.9583 48.4847 88.9583ZM48.7475 0.673584C22.2466 0.673584 0.756836 22.1675 0.756836 48.6736C0.756836 75.1796 22.2466 96.6736 48.7475 96.6736C75.2483 96.6736 96.7568 75.1984 96.7568 48.6736C96.7568 22.1487 75.2671 0.673584 48.7475 0.673584Z" fill="black"/>
</svg>
